# xmcd CD database file
#
# Track frame offsets:
#	150
#	15528
#	26784
#	36891
#	48388
#	59475
#	73538
#	91191
#	105292
#	116874
#	140754
#	152809
#	161876
#	175435
#
# Disc length: 2477 seconds
#
# Revision: 0
# Processed by: cddbd v1.5.2PL0 Copyright (c) Steve Scherf et al.
# Submitted via: CDex 1.51
#
DISCID=c209ab0e
DTITLE=King Country - Country Music Gallery
DYEAR=2006
DGENRE=Country
TTITLE0=Smoke Along the Tracks
TTITLE1=Without Love
TTITLE2=Singing the Blues
TTITLE3=There Stands the Glass
TTITLE4=Ring of Fire
TTITLE5=I'm a Lonsome Fugitive
TTITLE6=That's All Right Mama/Blue Moon of Kentucky
TTITLE7=Look Who's Blue
TTITLE8=Sea of Heartbrake
TTITLE9=Ghost Riders in the Sky
TTITLE10=She Thinks I Still Care
TTITLE11=You Nearly Lose Your Mind
TTITLE12=Folsom Prison Blues
TTITLE13=Good Rockin Tonight
EXTD=YEAR: 2006
EXTT0=
EXTT1=
EXTT2=
EXTT3=
EXTT4=
EXTT5=
EXTT6=
EXTT7=
EXTT8=
EXTT9=
EXTT10=
EXTT11=
EXTT12=
EXTT13=
PLAYORDER=
